<?xml version="1.0" encoding="UTF-8"?><svg id="Layer_1" xmlns="http://www.w3.org/2000/svg" viewBox="0 0 605.9 928.47"><defs><style>.cls-1{fill:#e4dec8;}</style></defs><path class="cls-1" d="m468.18,167.16c-3.45-31.3-228.33-42.94-248.15-34.9-2.3.86-4.89,1.72-7.76,2.58-7.18,2.3-37.2-.14-90.05-7.32-11.49-1.43-20.83.43-28.01,5.6-2.87,2.3-5.03,4.89-6.46,7.76-1.44,2.87-2.37,6.1-2.8,9.69-.43,3.6-1.08,9.12-1.94,16.59-.86,7.47-2.15,17.02-3.88,28.65-1.72,11.64-.71,19.75,3.02,24.34,1.43,2.01,3.02,3.45,4.74,4.31,1.72.86,3.16,2.73,4.31,5.6,1.14,2.87,1.36,5.89.65,9.05-.72,3.17-1.51,6.4-2.37,9.69-.86,3.31-1.37,6.4-1.51,9.26-.15,2.87,1,5.32,3.45,7.32,2.44,2.01,4.96,2.59,7.54,1.72,2.58-.86,6.25-2.87,10.99-6.03,4.74-3.16,9.12-4.16,13.14-3.01,5.45,2.01,8.47,9.63,9.05,22.83.28,5.75.07,12.07-.65,18.96-.72,6.89-2.01,14.58-3.88,23.05-1.87,8.48-2.09,15.3-.65,20.47,1.43,5.17,4.16,10.06,8.19,14.65-2.01,5.75-2.59,11.06-1.72,15.94.86,4.89,1.86,8.69,3.02,11.42,1.14,2.73-.61,361.23.68,364.67,1.29,3.45,2.37,7.69,3.23,12.71.86,5.03,1.08,12.14.65,21.33-.43,9.2.79,17.02,3.66,23.48,2.87,6.46,7.32,9.55,13.36,9.26,10.34-1.72,17.23-4.6,20.68-8.62,2.58-3.16,4.02-7.61,4.31-13.36.28-5.74.86-12.71,1.72-20.9.86-8.18,3.56-374.72,2.12-388.8,1.43-1.14,2.8-2.22,4.09-3.23,1.29-1,2.51-2.01,3.66-3.01,1.14-1,2.44-2.01,3.88-3.02,1.43-1,2.51-2.3,3.23-3.88.71-1.57,1.08-3.66,1.08-6.25s-.86-6.46-2.59-11.63-2.59-10.48-2.59-15.94c0-2.3.07-4.96.22-7.97.14-3.02.07-7.11-.22-12.28-.86-14.36-.86-25.99,0-34.9.28-6.03,1.14-11.34,2.59-15.94,1.43-4.59,3.95-8.04,7.54-10.34,3.59-2.3,8.25-1.86,14,1.29,2.29,1.44,4.81,2.8,7.54,4.09,1.62.77,78.57,1.15,141.93,1.16.06,1.25.13,2.06.22,2.29,1.29,3.45,2.37,7.69,3.23,12.71.86,5.03,1.08,12.14.65,21.33-.43,9.2.79,17.02,3.66,23.48,2.68,6.04,6.75,9.12,12.19,9.27v58.96h11.25v-61.37c4.9-1.62,8.43-3.7,10.6-6.22,2.58-3.16,4.02-7.61,4.31-13.36.28-5.74.86-12.71,1.72-20.9.22-2.04.54-12.12.9-26.28,19.47-.08,32.67-.23,33.8-.43,4.74-.86,8.11-2.94,10.13-6.25,2.01-3.3,2.8-8.83,2.37-16.59-.43-7.75-.36-14.07.22-18.96l2.58-21.11c.86-8.9.57-19.82-.86-32.75Z"/></svg>