<svg width="296" height="148" viewBox="0 0 296 148" fill="none" xmlns="http://www.w3.org/2000/svg">
<g clip-path="url(#clip0_6_2556)">
<path d="M87.7088 74.1489C79.5945 73.5682 76.319 78.0797 76.319 78.0797C68.6663 72.9428 61.1922 75.5783 61.1922 75.5783C56.815 69.697 51.202 71.3348 51.202 71.3348C39.976 60.1082 24.5812 62.5799 24.5812 62.5799C5.07715 64.843 4.67516 75.5783 4.67516 75.5783C4.67516 75.5783 2.26321 80.4322 12.0599 83.2463C23.9708 86.6708 33.8419 81.3702 32.8593 85.167C31.7575 89.4105 30.6706 95.4257 38.6063 97.8974C46.5419 100.354 50.1002 93.3859 55.1624 93.237C60.2245 93.103 61.8622 97.0636 61.0434 110.747C60.2245 124.43 58.3039 138.932 68.577 138.247C78.8352 137.563 72.4629 114.305 72.2693 110.464C71.8525 102.26 76.2297 104.851 76.5126 110.196C76.7806 115.526 80.473 116.211 82.6765 107.724C84.8651 99.2374 85.1331 106.221 84.1802 111.551C83.2273 116.881 85.684 121.318 87.7386 128.346C89.7932 135.359 85.818 145.082 94.8553 147.404C103.893 149.727 104.027 135.627 101.287 126.321C98.5477 117.015 97.5948 109.213 98.8306 107.843C100.066 106.474 109.238 106.057 107.183 94.0262C106.126 79.9259 97.1631 74.7891 87.7237 74.1191L87.7088 74.1489Z" fill="#AF2F2F"/>
<path d="M87.545 73.7915C83.4357 73.6277 78.2545 74.3127 75.5448 77.8563C76.0063 77.8861 76.4678 77.9159 76.9294 77.9308C72.1502 74.9678 66.031 73.4491 60.5222 75.2953C60.9837 75.3698 61.4602 75.4442 61.9217 75.5187C60.1202 73.3151 57.8422 71.4688 54.9538 70.9774C54.001 70.8137 53.0779 70.7541 52.125 70.7839C50.1299 70.8583 51.7081 71.0072 50.1746 69.6523C45.0529 65.111 38.2786 62.8479 31.5788 62.1481C22.5116 61.1951 9.55853 63.3988 4.8984 72.1388C4.19864 73.4491 3.6031 75.3698 3.6031 76.9034C3.57332 82.5167 13.2956 84.0503 17.1368 84.5565C20.7696 85.033 24.462 84.7501 28.0799 84.3481C28.8839 84.2587 32.3083 83.5143 32.0552 85.0181C31.7872 86.5815 31.3703 88.0555 31.2959 89.6487C31.0279 95.3215 36.8046 98.8354 42.0008 98.7461C45.0231 98.6865 47.45 97.5549 49.981 95.9915C52.8397 94.2197 56.934 91.8821 59.1078 95.7682C60.6859 98.5972 60.4626 102.513 60.4328 105.625C60.4031 110.672 59.8522 115.72 59.6289 120.767C59.3906 126.098 58.6909 134.868 64.3634 137.831C67.5645 139.498 72.2693 138.783 73.8921 135.314C76.2743 130.222 75.1725 123.775 74.3537 118.43C74.0112 116.211 73.5795 114.023 73.2221 111.804C73.0435 110.658 73.0435 109.511 73.103 108.35C73.2221 105.684 74.3834 105.312 75.3214 107.858C76.0063 109.734 75.2916 112.861 77.3612 114.112C78.4778 114.782 79.6689 114.559 80.6664 113.814C81.7235 113.025 82.2893 111.402 82.7657 110.241C83.2422 109.064 83.525 107.799 83.8526 106.593C84.3141 104.925 84.463 105.476 83.7484 104.047C84.3439 105.238 83.8675 107.456 83.7633 108.707C83.5697 111.045 83.0784 113.218 83.2868 115.571C83.6144 119.457 85.3712 123.269 86.5474 126.946C87.6641 130.416 87.6343 133.87 87.7385 137.458C87.9023 142.327 89.5996 146.645 94.8106 147.732C108.225 150.561 102.627 128.689 100.974 122.301C99.962 118.355 99.0687 114.231 99.1134 110.136C99.1432 108.082 100.036 107.739 101.704 107.039C105.992 105.253 108.166 102.007 108.27 97.3316C108.434 90.8398 106.319 83.8269 101.6 79.2559C97.8776 75.6527 92.5624 74.1935 87.5301 73.7617C86.4134 73.6724 87.1579 74.402 87.8576 74.4615C96.9694 75.2358 103.476 80.6108 105.709 89.4998C107.466 96.5127 107.302 103.6 99.9769 106.652C98.771 107.159 97.9223 107.397 97.6096 108.752C96.8057 112.102 98.0861 116.39 98.7858 119.666C100.453 127.512 104.012 135.94 100.84 143.92C98.6518 149.444 91.6989 147.077 90.0016 142.327C88.736 138.798 89.4358 134.585 89.0338 130.892C88.5872 126.753 86.607 122.792 85.4754 118.817C84.2099 114.335 85.5201 110.211 85.5052 105.699C85.5052 104.583 85.4159 103.466 84.0908 103.392C82.066 103.287 81.5449 108.722 81.128 109.958C80.8153 110.896 79.0733 115.035 77.8972 112.921C77.1974 111.67 77.3463 110.017 77.1081 108.633C76.8103 106.98 75.8128 105.163 74.0261 104.88C70.0806 104.24 71.6291 111.7 72.0162 113.933C73.0435 119.725 74.175 125.77 73.2966 131.666C72.9244 134.227 71.8077 136.907 69.1576 137.741C63.0979 139.662 61.6388 132.217 61.2815 128.197C60.4924 119.144 62.5917 110.092 61.9068 101.024C61.609 97.1678 60.418 93.4752 56.1896 92.9243C54.1647 92.6563 52.3334 93.2966 50.5617 94.2495C45.4251 97.0338 40.7799 100.295 35.0776 95.53C32.4274 93.3263 32.7252 89.5444 33.3654 86.5368C33.6929 84.9436 34.0651 83.9758 32.2636 83.4994C30.1941 82.9336 27.6482 83.6334 25.5935 83.8418C19.5041 84.4672 11.7472 84.3778 6.81903 80.2386C4.76441 78.5114 5.1664 75.9951 5.92572 73.7766C7.95056 67.7911 14.7546 65.0068 20.3528 63.6817C26.7995 62.1481 33.4994 62.431 39.7675 64.6048C42.0157 65.379 44.1149 66.5106 46.11 67.7911C47.4947 68.6845 49.3557 71.171 50.9339 71.6028C51.3955 71.7219 51.7826 71.6326 52.2292 71.5432C55.6089 70.903 58.4675 73.1662 60.4775 75.608C60.7604 75.9505 61.5048 75.9654 61.877 75.8314C66.5372 74.2829 71.6886 75.6974 75.7085 78.1839C75.9765 78.3477 76.8401 78.6008 77.0932 78.2583C79.5349 75.0571 84.1504 74.2978 87.8874 74.4615C89.004 74.5062 88.2596 73.7915 87.5599 73.7617L87.545 73.7915Z" fill="#600000"/>
<path d="M130.201 92.031C128.608 84.3034 118.126 86.6559 118.126 86.6559C125.928 85.2861 127.431 74.3424 120.583 70.367C113.734 66.3915 107.302 69.6821 107.302 69.6821L105.769 86.9686C106.483 89.0233 106.975 91.3758 107.183 94.041C107.183 94.041 110.503 104.836 118.677 105.67C124.692 106.28 127.908 102.87 129.382 101.262C129.382 101.262 131.436 97.9718 130.201 92.0161V92.031Z" fill="#AF2F2F"/>
<path d="M131.019 92.031C129.501 86.2241 123.203 85.3605 118.066 86.3135C117.009 86.507 118.9 86.909 119.51 86.7155C120.329 86.4475 121.029 86.1348 121.774 85.703C123.307 84.8394 124.349 83.276 125.064 81.6978C126.568 78.3626 125.615 74.4318 123.292 71.7815C120.746 68.8781 115.818 67.7614 112.126 68.1336C111.247 68.2229 106.587 68.5505 106.483 69.8607C105.977 75.5634 105.471 81.266 104.964 86.9835C105.426 86.909 105.902 86.8197 106.364 86.7453C106.2 86.6708 104.83 86.5666 104.964 86.9835C106.185 90.7803 106.17 94.3388 108.031 97.8825C109.788 101.233 112.751 104.717 116.592 105.64C120.806 106.652 125.004 105.833 128.384 103.109C131.779 100.384 131.719 96.0511 131.034 92.0161C130.945 91.5098 129.322 91.6141 129.396 92.0161C129.903 94.9493 130.186 98.478 128.607 101.173C125.764 106.012 118.26 106.295 114.151 103.332C111.724 101.59 110.071 98.7758 108.835 96.1107C107.495 93.2221 107.585 89.9911 106.617 86.9537C106.155 87.0282 105.679 87.1175 105.217 87.1919C105.485 87.3111 106.572 87.4153 106.617 86.9537C107.123 81.3107 107.614 75.6676 108.121 70.0245C108.165 69.4438 110.414 69.0418 111.619 68.8334C115.997 68.1336 120.791 69.9799 123.084 73.7915C125.972 78.6008 123.084 85.1521 117.724 86.3581C116.682 86.5964 118.081 87.0282 118.558 86.9239C123.039 85.9561 128.116 87.1026 129.396 92.0161C129.53 92.5223 131.138 92.3734 131.034 92.0161L131.019 92.031Z" fill="#600000"/>
<path d="M31.4297 71.4093C31.4297 71.4093 31.9359 71.1859 32.859 70.9179C33.7821 70.6499 35.1221 70.2777 36.7598 70.0097C37.5787 69.9054 38.472 69.7268 39.4249 69.6821C40.3777 69.5928 41.3902 69.5332 42.4324 69.563C43.4746 69.5332 44.5614 69.6523 45.6632 69.7417C46.75 69.8905 47.8667 70.0841 48.9684 70.3223C50.0404 70.6648 51.1571 70.8732 52.1844 71.3348C53.2266 71.7368 54.2241 72.1686 55.1323 72.7344C55.5939 73.0024 56.0405 73.2555 56.4872 73.5087C56.9041 73.7916 57.2912 74.1191 57.6783 74.4169C58.4376 75.0125 59.1671 75.5634 59.7031 76.2334C60.2689 76.8588 60.79 77.4097 61.2217 77.9457C61.594 78.5115 61.9215 79.0177 62.1746 79.4197C62.6957 80.2386 62.9786 80.7151 62.9786 80.7151C62.9786 80.7151 62.5766 80.328 61.9215 79.6282C61.594 79.2857 61.2069 78.8539 60.7602 78.3775C60.254 77.9606 59.6882 77.4692 59.0629 76.963C58.4822 76.3972 57.7229 75.9505 56.9636 75.4443C56.5765 75.206 56.1894 74.9231 55.7725 74.6849C55.3408 74.4765 54.909 74.2531 54.4623 74.0298C53.5988 73.5384 52.6161 73.2109 51.6484 72.8386C50.6955 72.4068 49.6235 72.2431 48.6111 71.9304C47.5838 71.6773 46.5267 71.4986 45.4845 71.3348C44.4423 71.2455 43.415 71.037 42.4026 71.0221C41.3902 70.9477 40.4224 70.903 39.4993 70.9179C38.5762 70.8881 37.6978 70.9477 36.8789 70.9477C35.2561 71.037 33.8863 71.1115 32.9334 71.2455C31.9806 71.3497 31.4297 71.4242 31.4297 71.4242V71.4093Z" fill="#600000"/>
<path d="M70.438 85.6435C70.438 85.6435 70.6315 84.5863 71.3015 83.1421C71.6291 82.4274 72.0608 81.5936 72.6266 80.7747C73.1626 79.926 73.8475 79.1219 74.577 78.3179C75.3363 77.5735 76.1552 76.8439 77.0039 76.3079C77.4356 76.0399 77.8376 75.757 78.2694 75.5783C78.7012 75.3847 79.0883 75.1912 79.4754 75.072C80.2496 74.8189 80.9047 74.6849 81.3811 74.67C81.8426 74.6254 82.1106 74.6254 82.1106 74.6254C82.1106 74.6254 81.8724 74.7594 81.4704 74.9827C81.0536 75.1763 80.5176 75.5187 79.8774 75.9207C79.5647 76.1143 79.252 76.3972 78.8947 76.6205C78.5374 76.8588 78.2247 77.1863 77.8525 77.4543C77.4803 77.7372 77.1676 78.1095 76.7954 78.4073C76.4381 78.7348 76.0956 79.0922 75.7383 79.4495C74.3537 80.8789 73.0733 82.4423 72.0906 83.6185C71.0931 84.8246 70.438 85.6286 70.438 85.6286V85.6435Z" fill="#600000"/>
<path d="M57.5 72.2728C57.5 72.2728 58.3933 72.4217 59.5397 73.1215C59.8375 73.2853 60.1204 73.5086 60.4182 73.732C60.7159 73.9702 61.0733 74.1935 61.3264 74.5062C61.6092 74.804 61.9219 75.1167 62.2048 75.4442C62.5174 75.7569 62.7259 76.1589 62.979 76.5163C63.2023 76.8885 63.4405 77.2756 63.6639 77.6479C63.8574 78.035 63.9914 78.4519 64.1403 78.839C64.2892 79.2261 64.4083 79.6133 64.5274 79.9706C64.6763 80.3131 64.6614 80.7002 64.721 81.0277C64.8996 82.3529 64.855 83.2165 64.855 83.2165C64.855 83.2165 64.3487 82.4571 63.8276 81.3106C63.6788 81.0278 63.5894 80.7002 63.381 80.4024C63.2023 80.0897 62.9939 79.777 62.8301 79.4346C62.6514 79.0921 62.4579 78.7497 62.2643 78.4072C62.041 78.0797 61.8177 77.7372 61.5944 77.4096C61.371 77.0672 61.2073 76.695 60.9393 76.3972C60.6862 76.0994 60.4628 75.7569 60.2395 75.4591C60.0311 75.1465 59.7631 74.8785 59.5546 74.5956C59.3164 74.3275 59.1377 74.0447 58.9144 73.8213C58.0955 72.8833 57.4702 72.243 57.4702 72.243L57.5 72.2728Z" fill="#600000"/>
<g style="mix-blend-mode:multiply">
<path d="M107.168 94.0559C106.111 79.9557 97.1482 74.8189 87.7088 74.1489C79.5945 73.5682 76.319 78.0797 76.319 78.0797C68.6663 72.9428 61.1922 75.5783 61.1922 75.5783C56.815 69.697 51.202 71.3348 51.202 71.3348C39.976 60.1082 24.5812 62.5799 24.5812 62.5799C5.07715 64.843 4.67516 75.5783 4.67516 75.5783C4.67516 75.5783 2.26321 80.4322 12.0599 83.2463C23.9708 86.6708 33.8419 81.3702 32.8593 85.167C31.7575 89.4105 30.6706 95.4257 38.6063 97.8974C46.5419 100.354 50.1002 93.3859 55.1624 93.237C60.2245 93.103 61.8622 97.0636 61.0434 110.747C60.2245 124.43 58.3039 138.932 68.577 138.247C78.8352 137.563 72.4629 114.305 72.2693 110.464C71.8525 102.26 76.2297 104.851 76.5126 110.196C76.7806 115.526 80.473 116.211 82.6765 107.724C84.8651 99.2374 85.1331 106.221 84.1802 111.551C83.2273 116.881 85.684 121.318 87.7386 128.346C89.7932 135.359 85.818 145.082 94.8553 147.404C103.893 149.727 104.027 135.627 101.287 126.321C98.5477 117.015 97.5948 109.213 98.8306 107.843C100.066 106.474 109.238 106.057 107.183 94.0262L107.168 94.0559ZM99.2921 126.932C102.166 138.739 99.709 143.459 95.2871 141.806C89.019 139.454 94.6767 132.575 91.9967 124.505C89.3317 116.42 85.7435 114.425 86.8602 106.31C87.9917 98.1952 83.7782 98.5078 81.6194 103.034C79.4605 107.546 78.1355 111.968 77.3166 105.029C76.4977 98.0909 69.6192 102.513 70.4083 109.392C71.1974 116.271 75.262 133.825 67.4603 134.019C59.6587 134.227 62.428 116.36 64.8548 100.667C66.5819 89.47 58.5272 85.3754 51.1276 90.9143C43.7428 96.4531 34.6012 92.0459 37.6832 84.5565C39.5591 80.0004 38.7105 75.7272 33.2464 78.3923C27.7822 81.0575 10.0797 83.7227 7.92087 77.767C5.76203 71.8113 10.5264 67.7316 18.9087 65.0515C31.43 61.0463 46.1101 68.1336 38.8147 68.4314C31.5342 68.7292 26.1892 73.464 31.3853 72.2877C50.7553 67.8805 62.5471 80.1791 63.7531 83.2463C64.9442 86.3135 66.0161 83.6185 64.8548 78.8986C63.6935 74.1787 72.4778 77.5585 70.84 81.5638C69.2023 85.569 68.175 91.4205 70.3934 88.2342C72.6118 85.0479 78.329 77.0523 85.1033 75.5783C91.8776 74.1042 100.394 78.2881 103.893 89.0531C107.377 99.833 101.942 103.213 97.4311 106.295C92.9198 109.377 96.4037 115.124 99.2772 126.917L99.2921 126.932Z" fill="#AF2F2F"/>
</g>
<g style="mix-blend-mode:multiply">
<path d="M130.201 92.031C128.608 84.3034 118.126 86.6559 118.126 86.6559C125.928 85.2861 127.431 74.3424 120.583 70.367C113.734 66.3915 107.302 69.6821 107.302 69.6821L105.769 86.9686C106.483 89.0233 106.975 91.3758 107.183 94.041C107.183 94.041 110.503 104.836 118.677 105.67C124.692 106.28 127.908 102.87 129.382 101.262C129.382 101.262 131.436 97.9718 130.201 92.0161V92.031ZM128.146 99.3267C123.828 106.712 106.677 98.4036 108.076 81.7722C108.955 71.2306 113.511 69.0269 117.784 70.233C122.057 71.439 126.345 82.1147 118.186 85.1521C115.431 86.1795 113.674 87.4153 119.332 87.6088C124.975 87.8173 132.464 91.9267 128.161 99.3119L128.146 99.3267Z" fill="#AF2F2F"/>
</g>
<g style="mix-blend-mode:screen">
<path d="M74.1897 87.2515C74.1004 83.6929 82.2891 75.8462 90.8351 77.2607C99.2025 78.6454 103.401 87.1175 102.895 91.7332C102.389 96.3489 100.736 87.2217 90.8947 85.0628C81.0384 82.9038 74.2641 90.14 74.1897 87.2515Z" fill="#E20000"/>
</g>
<g style="mix-blend-mode:screen">
<path d="M88.5724 101.277C86.7411 107.605 88.0215 111.134 91.5203 118.623C95.0043 126.113 95.2127 128.957 93.9769 132.932C92.7412 136.907 99.0093 138.754 97.6693 131.145C96.3293 123.552 93.2474 121.229 90.2846 114.41C86.8602 106.563 88.5724 101.277 88.5724 101.277Z" fill="#E20000"/>
</g>
<g style="mix-blend-mode:screen">
<path d="M66.3289 95.113C67.2818 98.1951 64.6167 108.052 63.7979 115.839C62.979 123.641 62.577 133.2 66.9096 131.949C71.1826 130.713 65.9269 117.983 66.9096 107.322C67.654 99.3118 66.3289 95.113 66.3289 95.113Z" fill="#E20000"/>
</g>
<g style="mix-blend-mode:screen">
<path d="M8.65045 75.9207C8.11446 69.0567 19.5936 64.6346 26.0999 64.8282C32.6062 65.0366 12.2833 65.4088 13.5041 74.9529C14.055 79.1964 8.978 80.0748 8.65045 75.9058V75.9207Z" fill="#E20000"/>
</g>
<g style="mix-blend-mode:screen">
<path d="M31.9063 73.1811C33.8716 71.2157 54.4923 69.1461 62.145 83.2314C63.8423 86.3581 57.8422 80.8342 48.4624 77.0821C39.0826 73.3151 29.7772 75.2954 31.9063 73.1811Z" fill="#E20000"/>
</g>
<g style="mix-blend-mode:screen">
<path d="M73.0286 100.831C75.649 99.6543 77.3463 100.622 77.7483 103.63C78.1652 106.637 78.8054 104.464 81.3067 101.947C84.1802 99.0439 85.5499 97.8229 88.081 99.8032C90.612 101.784 85.937 93.907 81.5151 98.8354C77.0932 103.764 78.5672 95.0833 73.0286 99.5352C67.4901 103.987 72.314 101.158 73.0286 100.845V100.831Z" fill="#E20000"/>
</g>
<g style="mix-blend-mode:screen">
<path d="M38.7552 84.1694C37.0281 88.264 39.6634 93.6688 46.14 92.6265C49.2368 92.1203 48.8795 88.5915 46.14 89.6785C43.4005 90.7803 39.0977 89.336 39.2912 86.5368C39.4996 83.7376 39.0977 83.3356 38.7403 84.1694H38.7552Z" fill="#E20000"/>
</g>
<g style="mix-blend-mode:screen">
<path d="M109.223 80.1344C110.116 72.4217 114.538 70.4414 117.024 70.9179C121.416 71.7368 125.034 79.6579 119.347 83.7823C115.923 86.2688 115.789 83.8716 117.367 80.9831C118.945 78.1094 115.476 76.9481 114.97 80.1195C114.21 84.8096 108.746 84.2587 109.223 80.1195V80.1344Z" fill="#E20000"/>
</g>
<g style="mix-blend-mode:screen">
<path d="M112.319 90.6016C114.076 96.6615 118.081 100.86 123.426 100.354C128.756 99.8478 128.861 95.0237 127.64 93.8921C126.404 92.7605 124.87 93.3859 124.156 95.1279C123.441 96.87 116.577 99.4309 112.334 90.6165L112.319 90.6016Z" fill="#E20000"/>
</g>
<path d="M107.511 69.7714L109.431 36.3895C109.431 36.3895 90.9544 38.0274 79.3264 38.7867C67.6985 39.5312 29.7475 42.7473 29.7475 42.7473C27.3057 50.1324 24.7896 62.6543 24.7896 62.6543C24.7896 62.6543 40.1843 60.1976 51.4103 71.4092C51.4103 71.4092 57.0233 69.7714 61.4006 75.6527C61.4006 75.6527 68.8747 73.0173 76.5274 78.1541C76.5274 78.1541 79.8178 73.6426 87.9172 74.2233C95.5699 74.7742 102.91 78.2583 105.977 87.0579L107.511 69.7714Z" fill="#E1E1E5"/>
<path d="M108.33 69.7416C108.97 58.6193 109.61 47.4821 110.25 36.3597C110.265 36.0024 109.387 36.062 109.208 36.0768C82.7361 38.4294 56.2195 40.1714 29.7327 42.4197C29.554 42.4346 29.018 42.4495 28.9436 42.6877C26.8443 49.2241 25.3257 55.9541 23.9708 62.6841C23.8964 63.0265 24.879 62.9968 25.013 62.967C30.5813 62.1183 36.5666 63.3243 41.7031 65.4684C43.996 66.4213 46.0804 67.7762 48.0457 69.2503C49.0581 70.0096 49.877 71.6326 51.202 71.7368C51.6338 71.7666 52.0656 71.6326 52.4825 71.573C55.8175 71.0966 58.6463 73.3597 60.6116 75.7718C60.8498 76.0696 61.5049 76.0398 61.8176 75.9356C66.5522 74.3573 71.7185 75.8016 75.8129 78.3477C76.1702 78.571 77.0337 78.5859 77.3166 78.2286C80.8303 73.6129 88.0215 74.1191 92.9645 75.474C96.2847 76.3972 99.1731 78.2732 101.511 80.7597C102.449 81.7573 103.163 82.9336 103.848 84.1098C104.161 84.6459 104.816 87.0133 105.277 87.2515C105.56 87.4004 106.751 87.5642 106.796 87.043C107.302 81.2809 107.823 75.5187 108.33 69.7565C108.374 69.3247 106.736 69.3098 106.692 69.8161C106.186 75.5782 105.664 81.3404 105.158 87.1026C105.664 87.0282 106.171 86.9537 106.677 86.8941C106.409 86.7601 105.605 84.2885 105.411 83.9163C104.95 82.9931 104.325 82.1593 103.714 81.3255C102.538 79.7473 100.975 78.4817 99.3517 77.3799C96.642 75.5336 93.2325 74.5211 90.0166 74.1191C85.2671 73.5384 78.9246 73.9106 75.7235 78.1094C76.2149 78.0648 76.7211 78.0201 77.2273 77.9903C72.5076 75.072 66.4182 73.598 60.9838 75.4145C61.3858 75.474 61.7878 75.5187 62.1898 75.5782C59.495 72.2579 55.356 70.0096 50.9936 71.1859C51.3956 71.2455 51.7976 71.2901 52.1996 71.3497C45.0531 64.4857 34.4673 60.8825 24.5664 62.3863C24.9088 62.4756 25.2661 62.5799 25.6086 62.6692C26.353 58.9469 27.2016 55.2394 28.1098 51.5469C28.3481 50.5344 30.3878 43.0599 29.822 43.1046C30.5069 43.0451 31.1918 42.9855 31.8767 42.9259C40.1398 42.2261 48.403 41.5412 56.6662 40.8712C74.324 39.4418 91.9968 38.2954 109.64 36.7171C109.297 36.6277 108.94 36.5235 108.598 36.4342C107.957 47.5565 107.317 58.6937 106.677 69.8161C106.647 70.2479 108.285 70.2628 108.315 69.7565L108.33 69.7416Z" fill="black"/>
<path d="M108.076 56.3859C108.076 56.3859 106.692 54.9714 102.999 63.3243C99.3071 71.6624 97.6694 74.268 94.9894 70.233C92.3244 66.198 88.632 65.6471 85.833 70.233C83.0339 74.8189 80.6219 70.5754 76.2596 71.2008C71.8972 71.8113 71.6888 75.8165 66.9096 72.2728C62.1303 68.7292 61.9517 57.6515 59.5695 61.6418C57.1873 65.6322 55.9962 57.8451 49.8472 61.6418C43.6834 65.4237 43.0729 62.163 37.1175 56.8326C31.1621 51.5022 25.4597 58.53 25.4597 58.53C24.9237 60.942 24.5962 62.5799 24.5962 62.5799C24.5962 62.5799 39.991 60.1231 51.217 71.3348C51.217 71.3348 56.83 69.697 61.2072 75.5783C61.2072 75.5783 68.6813 72.9428 76.334 78.0797C76.334 78.0797 79.6244 73.5682 87.7238 74.1489C95.3765 74.6998 102.717 78.1839 105.784 86.9835L107.317 69.697L108.076 56.4008V56.3859Z" fill="#990404"/>
<g style="mix-blend-mode:multiply">
<path d="M79.3264 38.7718C67.6985 39.5163 29.7475 42.7324 29.7475 42.7324C27.3057 50.1175 24.7896 62.6394 24.7896 62.6394C24.7896 62.6394 40.1843 60.1827 51.4103 71.3944C51.4103 71.3944 57.0233 69.7565 61.4006 75.6378C61.4006 75.6378 68.8747 73.0024 76.5274 78.1392C76.5274 78.1392 79.8178 73.6278 87.9172 74.2084C95.5699 74.7593 102.91 78.2434 105.977 87.043L107.511 69.7565L109.431 36.3746C109.431 36.3746 90.9544 38.0125 79.3264 38.7718ZM105.247 50.9811C104.607 60.2869 102.657 70.9179 102.389 74.6253C102.121 78.3179 92.7262 67.672 80.9046 70.9179C75.8425 72.3026 73.2966 67.9549 62.4428 70.2479C57.9167 71.2157 57.738 65.9151 48.3433 64.843C44.234 64.3666 44.5169 60.406 36.2984 60.406C28.0799 60.406 27.5886 61.6269 29.5539 55.4776C32.5167 46.1867 29.7326 44.4447 34.6607 44.1469C39.5888 43.8491 57.9911 45.3529 82.1106 42.4793C106.23 39.6056 105.903 41.6901 105.262 50.996L105.247 50.9811Z" fill="#BABABF"/>
</g>
<g style="mix-blend-mode:screen" opacity="0.7">
<path d="M31.6086 55.8797C32.2637 48.3308 28.214 47.3928 38.8891 48.6286C49.5642 49.8644 78.5672 49.6708 89.9272 48.1968C101.287 46.7078 97.9968 48.7626 96.359 58.6193C94.7213 68.476 94.096 66.1384 82.0958 67.3742C70.0807 68.6101 60.7455 63.8752 49.5642 60.942C38.3829 58.0088 31.2512 59.9742 31.6086 55.8797Z" fill="#E1E1E5"/>
</g>
<path d="M278.491 12.2241C282.049 -0.640263 288.779 1.34002 288.779 1.34002C288.288 1.07201 287.841 0.893339 287.514 0.804003C285.251 0.19354 270.273 1.2209 260.833 2.03982C251.394 2.85873 210.555 10.6607 188.996 13.3259C167.437 15.9911 128.861 18.8648 114.895 20.1601C100.93 21.4555 83.8973 20.711 69.9467 21.9469C55.9812 23.1827 40.5864 22.3638 34.2289 22.5573C27.8715 22.7658 21.9161 21.1279 18.2237 20.309C14.5313 19.4901 5.28553 22.1553 6.11929 31.3867C6.93817 40.6181 10.839 44.534 14.5313 44.1171C18.2237 43.7002 29.539 42.6877 29.539 42.6877C29.539 42.6877 67.4901 39.4716 79.118 38.7271C90.746 37.9827 109.223 36.33 109.223 36.33C109.223 36.33 169.909 36.5235 186.941 35.9131C203.974 35.3026 223.269 34.4837 242.148 35.0941C261.027 35.7046 277.449 34.8857 280.531 34.6772C281.126 34.6326 281.93 34.5432 282.853 34.305C276.302 34.4688 274.918 25.1034 278.476 12.239L278.491 12.2241Z" fill="#63452C"/>
<path d="M279.31 12.3432C280.292 9.03782 283.508 0.267996 288.526 1.60804C288.69 1.6527 289.598 1.8016 289.598 1.44425C289.598 1.32514 289.494 1.22091 289.389 1.17625C284.967 -0.952929 278.61 0.387111 273.92 0.670008C267.473 1.05713 261.027 1.47403 254.639 2.41206C239.542 4.63057 224.52 7.44466 209.452 9.88651C177.993 14.9787 146.221 16.8845 114.523 19.7879C103.758 20.7855 92.9344 20.6217 82.1402 20.9046C71.0928 21.2024 60.12 22.2893 49.0577 22.2595C39.7226 22.2298 30.2832 22.6616 21.1416 20.6068C16.3922 19.5348 12.2085 19.5646 8.2779 22.9296C3.32 27.173 4.83864 37.2084 8.72456 41.6901C12.1787 45.6805 16.9282 44.2064 21.5883 43.7597C30.4619 42.9111 39.3355 42.1964 48.2091 41.4668C61.6535 40.365 75.0979 39.3972 88.5572 38.3847C97.4903 37.6998 106.021 36.6426 114.612 36.6575C138.538 36.7022 162.524 37 186.435 36.2555C205.552 35.6599 224.639 34.8708 243.756 35.4515C252.227 35.7046 260.699 35.6748 269.171 35.4664C273.846 35.3473 278.789 35.5259 283.389 34.5879C284.193 34.4241 282.943 33.9328 282.675 33.9328C273.92 33.7243 278.089 16.8249 279.28 12.3284C279.399 11.9115 277.791 11.5988 277.657 12.0901C276.019 18.2543 272.357 34.3646 283.017 34.6177C282.779 34.3944 282.541 34.1859 282.302 33.9626C275.439 35.3622 267.786 34.841 260.848 34.9304C249.205 35.0495 237.592 34.4837 225.949 34.5135C208.634 34.5432 191.333 35.5855 174.018 35.8088C152.355 36.0768 130.692 36.0322 109.044 35.9726C104.116 35.9577 99.0536 36.8213 94.1404 37.2233C87.0981 37.7891 80.0409 38.2507 72.9986 38.7718C59.986 39.7396 46.9882 40.8414 33.9905 41.9284C31.2659 42.1517 28.5413 42.3899 25.8167 42.643C22.5114 42.9408 19.2061 43.2535 15.9157 43.5811C10.8685 44.0873 8.88833 40.4543 7.65258 36.1215C6.4466 31.8929 6.28283 27.3368 9.27544 23.8676C11.866 20.8748 15.9753 20.1304 19.6379 20.9791C27.7075 22.8551 35.4793 22.8253 43.6978 22.9296C53.8221 23.0487 63.8272 22.6913 73.9217 22.0064C84.7755 21.2768 95.659 21.5002 106.528 21.0684C122.28 20.4282 138.077 18.5968 153.784 17.2269C170.042 15.7976 186.286 14.2789 202.425 11.8221C218.296 9.39516 234.093 6.52152 249.935 3.96055C254.535 3.21608 287.93 -0.26802 287.93 1.22091C288.288 1.16136 288.645 1.11669 289.002 1.05713C282.57 -0.684922 279.042 7.35532 277.642 12.105C277.523 12.507 279.116 12.8346 279.265 12.3432H279.31Z" fill="#3A2914"/>
<path d="M288.794 1.32513C288.794 1.32513 282.064 -0.64026 278.506 12.2092C274.947 25.0736 276.332 34.439 282.883 34.2752C286.739 33.3074 292.739 30.0169 294.719 19.2519C296.833 7.83177 291.727 2.88851 288.794 1.31024V1.32513Z" fill="#7C583D"/>
<path d="M287.976 1.26559C288.392 1.20603 288.809 1.13158 289.226 1.07202C284.581 -0.17868 281.082 3.99033 279.281 7.68289C276.69 12.9835 275.633 19.6837 275.797 25.5352C275.886 28.8109 276.809 32.4587 279.936 34.0519C285.683 36.9851 292.144 29.4362 293.916 24.9247C296.924 17.2567 297.683 5.83661 289.39 1.13158C289.018 0.923131 287.454 1.08691 288.199 1.5187C293.976 4.79436 294.839 11.9263 294.11 17.9268C293.603 22.0809 292.115 26.1457 289.509 29.4362C287.931 31.4314 284.313 34.4837 281.499 33.7988C274.516 32.1014 277.926 17.8225 278.983 13.5493C279.831 10.0801 283.211 0.193553 288.363 1.59315C288.556 1.65271 289.613 1.81649 289.613 1.39959C289.613 0.908241 287.976 0.833795 287.976 1.28047V1.26559Z" fill="#3A2914"/>
<g style="mix-blend-mode:multiply" opacity="0.4">
<path d="M288.794 1.32513C288.794 1.32513 282.064 -0.64026 278.506 12.2092C274.947 25.0736 276.332 34.439 282.883 34.2752C286.739 33.3074 292.739 30.0169 294.719 19.2519C296.833 7.83177 291.727 2.88851 288.794 1.31024V1.32513ZM293.796 15.3807C292.426 22.8253 288.287 25.0885 285.607 25.7585C281.066 25.8776 280.114 19.4008 282.57 10.497C285.027 1.60803 289.687 2.96296 289.687 2.96296C291.712 4.04988 295.24 7.47443 293.781 15.3658L293.796 15.3807Z" fill="#63452C"/>
</g>
<g style="mix-blend-mode:multiply" opacity="0.6">
<path d="M288.63 0.789127C287.082 0.372226 279.623 0.71468 272.029 1.23581C281.767 8.85915 271.493 29.0342 259.761 29.332C244.366 29.7042 203.795 28.7364 175.849 31.5058C147.903 34.2752 111.977 30.9996 77.3611 32.8905C42.76 34.7815 21.0971 40.0076 15.2757 34.7517C11.0027 30.8954 11.3004 23.9123 17.107 20.2048C12.8488 20.5473 6.52119 23.674 7.20606 31.3867C8.02493 40.6181 11.9257 44.534 15.6181 44.1171C19.3105 43.7002 30.6258 42.6877 30.6258 42.6877C30.6258 42.6877 68.5768 39.4716 80.2048 38.7272C91.8328 37.9827 110.31 36.33 110.31 36.33C110.31 36.33 170.995 36.5235 188.028 35.9131C205.061 35.3026 224.356 34.4837 243.25 35.0942C262.128 35.7046 278.551 34.8857 281.633 34.6773C282.228 34.6326 283.032 34.5433 283.955 34.305C277.404 34.4688 276.02 25.1034 279.578 12.239C283.136 -0.62536 289.866 1.35492 289.866 1.35492C289.375 1.08691 288.928 0.908242 288.615 0.818906L288.63 0.789127Z" fill="#63452C"/>
</g>
<g style="mix-blend-mode:screen" opacity="0.8">
<path d="M16.1691 29.734C16.4668 20.8451 19.4148 23.4209 39.5442 24.0016C59.6735 24.5823 83.5697 23.7634 109.193 22.3638C134.816 20.9791 144.806 19.5943 176.415 15.7678C208.023 11.9412 242.237 6.72996 255.503 4.54123C268.769 2.3525 268.992 18.2692 230.431 19.4752C191.869 20.6813 186.673 23.6889 165.74 25.0587C144.806 26.4286 104.697 26.9199 78.984 29.7042C53.2714 32.4885 15.8862 38.6229 16.1691 29.7042V29.734Z" fill="#63452C"/>
</g>
<mask id="mask0_6_2556" style="mask-type:luminance" maskUnits="userSpaceOnUse" x="6" y="0" width="283" height="45">
<path d="M278.491 12.2241C282.049 -0.640263 288.779 1.34002 288.779 1.34002C288.288 1.07201 287.841 0.893339 287.514 0.804003C285.251 0.19354 270.273 1.2209 260.833 2.03982C251.394 2.85873 210.555 10.6607 188.996 13.3259C167.437 15.9911 128.861 18.8648 114.895 20.1601C100.93 21.4555 83.8973 20.711 69.9467 21.9469C55.9812 23.1827 40.5864 22.3638 34.2289 22.5573C27.8715 22.7658 21.9161 21.1279 18.2237 20.309C14.5313 19.4901 5.28553 22.1553 6.11929 31.3867C6.93817 40.6181 10.839 44.534 14.5313 44.1171C18.2237 43.7002 29.539 42.6877 29.539 42.6877C29.539 42.6877 67.4901 39.4716 79.118 38.7271C90.746 37.9827 109.223 36.33 109.223 36.33C109.223 36.33 169.909 36.5235 186.941 35.9131C203.974 35.3026 223.269 34.4837 242.148 35.0941C261.027 35.7046 277.449 34.8857 280.531 34.6772C281.126 34.6326 281.93 34.5432 282.853 34.305C276.302 34.4688 274.918 25.1034 278.476 12.239L278.491 12.2241Z" fill="white"/>
</mask>
<g mask="url(#mask0_6_2556)">
<g style="mix-blend-mode:multiply" opacity="0.5">
<path d="M107.481 38.5038C87.2622 38.5931 67.7879 32.6523 47.8819 29.8978C38.6659 28.6173 29.3158 28.7662 20.0254 28.6173C12.8937 28.5131 7.95071 30.2998 1.14662 32.3098C-0.893114 32.9203 1.95061 33.5754 2.88859 33.3074C37.6683 22.9891 71.7632 39.9927 106.722 39.8439C108.121 39.8439 109.729 38.4889 107.481 38.5038Z" fill="#63452C"/>
</g>
<g style="mix-blend-mode:multiply" opacity="0.5">
<path d="M68.7407 43.6704C53.8372 42.5984 40.5119 36.1364 25.936 34.037C17.1071 32.7565 7.2806 32.7119 0.19363 38.8761C-0.75924 39.7099 2.38225 40.0672 3.03735 39.5014C12.8638 30.9698 26.8889 35.4515 37.8915 38.7569C47.7478 41.7199 57.604 44.2362 67.892 44.9658C69.2916 45.07 70.9889 43.8491 68.7407 43.6853V43.6704Z" fill="#63452C"/>
</g>
<g style="mix-blend-mode:multiply" opacity="0.5">
<path d="M98.473 23.7187C108.672 23.1976 118.93 24.1654 129.158 24.4185C139.491 25.297 149.675 22.9891 159.978 22.0213C172.573 20.8302 185.422 19.639 197.959 17.7332C198.093 17.7183 198.167 17.6885 198.241 17.6587C203.676 17.629 208.887 15.7827 214.157 14.6213C222.108 12.8793 230.52 12.8495 238.604 13.0579C245.781 13.2366 252.927 14.1449 260.103 13.5493C263.617 13.2515 267.071 12.7453 270.525 12.0306C274.129 11.2712 276.749 8.44224 280.62 8.35291C281.677 8.32313 280.441 7.59355 279.935 7.60844C277.672 7.668 275.885 8.38269 273.861 9.38027C270.511 11.033 267.25 11.837 263.558 12.373C255.518 13.5344 247.523 12.7155 239.468 12.373C232.187 12.0604 224.907 12.2986 217.671 13.1919C210.941 14.0257 204.361 16.8696 197.571 16.9143C197.274 16.8398 196.961 16.7952 196.753 16.8249C196.529 16.8547 196.291 16.8845 196.068 16.9143C195.874 16.9143 195.77 16.9143 195.725 16.9589C186.375 18.2692 176.936 18.2245 167.616 19.6837C156.985 21.3662 144.866 23.9272 133.729 23.7038C133.655 23.5847 133.431 23.4954 132.94 23.4954C131.645 23.4954 130.335 23.4656 129.039 23.4358C128.533 23.3911 128.027 23.3316 127.521 23.272C127.208 23.2274 126.88 23.272 126.612 23.3614C117.218 23.0933 107.838 22.5127 98.4283 22.736C84.9095 23.0785 71.6586 24.8056 58.0505 24.5674C45.0081 24.3292 32.3081 24.2547 19.5337 21.3364C13.8016 20.0261 8.84369 20.5771 4.04956 23.9569C3.33491 24.4632 5.67242 24.6716 6.20841 24.2994C13.1912 19.3859 26.2782 23.7336 35.5091 24.895C30.1493 24.9396 24.8043 25.0439 19.4592 24.8652C13.2954 24.6567 7.07195 24.6418 1.84605 28.2897C0.908071 28.9449 4.01979 29.2129 4.73444 28.7066C9.90078 25.1034 16.5858 26.1903 22.4072 26.2946C28.1095 26.3988 33.8119 26.2946 39.4993 26.2946C51.7377 26.2946 63.589 27.8579 75.5892 30.1658C97.2223 34.3348 119.362 34.0966 141.293 34.3646C161.258 34.6028 181.194 29.6 200.579 25.2374C212.564 22.5424 224.445 19.7581 236.728 18.8946C249.413 18.0012 263.424 15.8422 275.588 19.8326C276.377 20.0857 279.459 19.2519 277.821 18.7159C268.903 15.7827 261.28 15.9018 252.019 16.8994C248.922 17.227 245.855 17.4801 242.788 17.7034C242.699 17.6736 242.58 17.6439 242.401 17.6439C240.987 17.6141 239.617 17.3163 238.202 17.2567C238.083 17.2121 237.964 17.1972 237.919 17.1823C237.711 17.1674 237.503 17.1227 237.309 17.1078C237.235 17.1078 237.13 17.1078 237.041 17.1078C212.073 13.5195 188.385 24.4185 164.191 27.8579C150.866 29.7638 136.841 29.2873 123.382 30.5082C115.118 31.2527 106.796 31.0591 98.5176 30.6274C93.1726 30.3445 87.8276 30.3891 82.5422 29.8084C80.5918 29.4958 78.6265 29.1682 76.6761 28.8406C76.1103 28.7066 75.5446 28.6024 74.9937 28.4535C74.5172 28.3195 74.145 28.3195 73.877 28.3642C67.5494 27.2773 61.2068 26.2052 54.7899 25.5799C59.9115 25.6692 65.0332 25.7139 70.14 25.6692C79.6687 25.6096 89.0336 24.2249 98.5325 23.7485L98.473 23.7187ZM150.657 30.0616C164.459 29.4809 176.832 27.709 190.157 23.8676C203.706 19.9666 220.559 16.7803 234.972 18.2394C228.242 18.7308 221.527 19.3263 214.753 20.6664C187.447 26.101 161.243 33.4414 133.193 32.8756C127.044 32.7416 120.91 32.6672 114.791 32.4885C126.776 32.2503 138.687 30.5678 150.657 30.0616Z" fill="#63452C"/>
</g>
<g style="mix-blend-mode:multiply" opacity="0.5">
<path d="M44.4125 43.73C39.7821 41.7795 36.6704 40.1714 31.5488 40.2608C22.4518 40.4245 13.206 43.462 4.12398 41.8688C3.14133 41.6901 0.431612 42.7175 2.51601 43.0748C16.154 45.472 28.571 39.0398 42.1345 44.7722C42.9087 45.0998 46.0056 44.4149 44.4125 43.73Z" fill="#63452C"/>
</g>
<g style="mix-blend-mode:multiply" opacity="0.5">
<path d="M276.928 23.9569C266.61 20.2495 254.967 23.1827 244.709 25.7883C226.083 30.5082 208.619 36.4789 189.144 36.7469C187.224 36.7767 187.164 38.0869 189.115 38.0571C201.83 37.8785 214.202 35.9429 226.485 32.6523C240.585 28.8704 259.88 19.5497 274.59 24.8503C275.349 25.1183 278.506 24.5376 276.928 23.9718V23.9569Z" fill="#63452C"/>
</g>
<g style="mix-blend-mode:multiply" opacity="0.5">
<path d="M275.722 29.0342C269.9 28.2897 264.659 29.2724 259.106 30.9996C249.369 34.0221 239.513 35.8386 229.418 37.0744C227.751 37.2829 230.728 38.5187 231.532 38.4145C237.979 37.6253 244.351 36.6278 250.694 35.243C259.255 33.367 267.399 29.2873 276.347 30.4338C278.58 30.7167 277.091 29.2129 275.722 29.0342Z" fill="#63452C"/>
</g>
</g>
<g style="mix-blend-mode:screen" opacity="0.8">
<path d="M27.3804 26.5328C27.3804 26.5328 42.2838 25.9074 64.6465 24.9545C70.2297 24.7163 76.2894 24.4483 82.6915 24.1803C89.0787 23.7931 95.8083 23.3762 102.776 22.9593C109.714 22.5424 116.935 21.7086 124.246 21.1428C131.571 20.5473 138.955 19.6837 146.37 18.969C150.077 18.5968 153.784 18.2394 157.477 17.8821C161.169 17.4652 164.832 17.0483 168.48 16.6314C175.76 15.7529 182.966 15.1275 189.889 14.2193C203.765 12.4772 216.704 10.8543 227.811 9.46959C233.364 8.78468 238.456 8.14444 242.982 7.66798C247.508 7.2213 251.468 6.83418 254.714 6.5215C257.96 6.20883 260.536 6.13438 262.278 6.00038C263.156 5.94082 263.826 5.94082 264.273 5.92593C264.719 5.92593 264.958 5.91104 264.958 5.91104C264.958 5.91104 264.734 5.92593 264.273 5.9706C263.826 6.01527 263.156 6.04505 262.292 6.17905C260.551 6.40239 258.019 6.72995 254.774 7.14686C251.543 7.62332 247.627 8.204 243.146 8.87402C238.664 9.6036 233.602 10.4225 228.079 11.3308C217.046 13.1473 204.123 15.0531 190.262 17.078C186.792 17.6141 183.264 18.0161 179.691 18.4628C176.117 18.8945 172.499 19.3263 168.852 19.773C165.204 20.2048 161.527 20.6366 157.834 21.0833C154.127 21.4704 150.42 21.8575 146.698 22.2446C139.253 22.9296 131.824 23.7485 124.514 24.3143C120.851 24.5972 117.218 24.8801 113.63 25.1481C110.042 25.3863 106.483 25.7585 102.985 25.8479C95.987 26.1159 89.2127 26.3839 82.7957 26.6221C76.3787 26.6966 70.3191 26.771 64.721 26.8306C61.9219 26.8454 59.242 26.8752 56.696 26.8901C54.1501 26.8752 51.7232 26.8454 49.4453 26.8306C44.9042 26.7859 40.929 26.7561 37.6684 26.7263C34.4078 26.7114 31.8469 26.6072 30.0901 26.5774C28.3481 26.5328 27.4101 26.5179 27.4101 26.5179L27.3804 26.5328Z" fill="#BF916F"/>
</g>
</g>
<defs>
<clipPath id="clip0_6_2556">
<rect width="296" height="148" fill="white"/>
</clipPath>
</defs>
</svg>
